<svg width="40" height="40" viewBox="0 0 40 40" fill="none" xmlns="http://www.w3.org/2000/svg">
<path fill-rule="evenodd" clip-rule="evenodd" d="M1.66642 4.73009C1.66642 3.91764 1.98917 3.13847 2.56365 2.56398C3.13814 1.9895 3.91731 1.66675 4.72976 1.66675H35.2664C35.669 1.66609 36.0678 1.74486 36.44 1.89853C36.8121 2.0522 37.1503 2.27777 37.4352 2.56231C37.72 2.84686 37.946 3.18479 38.1 3.55677C38.2541 3.92875 38.3333 4.32746 38.3331 4.73009V35.2668C38.3335 35.6695 38.2546 36.0683 38.1007 36.4405C37.9468 36.8126 37.7211 37.1508 37.4364 37.4356C37.1518 37.7204 36.8137 37.9463 36.4417 38.1004C36.0696 38.2545 35.6708 38.3336 35.2681 38.3334H4.72976C4.32733 38.3334 3.92885 38.2541 3.55708 38.1001C3.18531 37.946 2.84754 37.7202 2.56306 37.4356C2.27858 37.151 2.05298 36.8131 1.89913 36.4412C1.74528 36.0694 1.6662 35.6708 1.66642 35.2684V4.73009ZM16.1798 15.6468H21.1448V18.1401C21.8614 16.7068 23.6948 15.4168 26.4498 15.4168C31.7314 15.4168 32.9831 18.2718 32.9831 23.5101V33.2134H27.6381V24.7034C27.6381 21.7201 26.9214 20.0368 25.1014 20.0368C22.5764 20.0368 21.5264 21.8518 21.5264 24.7034V33.2134H16.1798V15.6468ZM7.01309 32.9851H12.3598V15.4168H7.01309V32.9834V32.9851ZM13.1248 9.68675C13.1348 10.1445 13.0534 10.5997 12.8852 11.0256C12.7169 11.4515 12.4653 11.8395 12.1451 12.1668C11.8249 12.4941 11.4426 12.7542 11.0205 12.9318C10.5984 13.1093 10.1452 13.2008 9.68725 13.2008C9.22936 13.2008 8.77607 13.1093 8.354 12.9318C7.93192 12.7542 7.54957 12.4941 7.22937 12.1668C6.90917 11.8395 6.65758 11.4515 6.48936 11.0256C6.32113 10.5997 6.23967 10.1445 6.24975 9.68675C6.26954 8.78818 6.6404 7.93307 7.2829 7.30456C7.9254 6.67605 8.78846 6.32412 9.68725 6.32412C10.586 6.32412 11.4491 6.67605 12.0916 7.30456C12.7341 7.93307 13.105 8.78818 13.1248 9.68675Z" fill="#0A66C2"/>
</svg>
