<svg width="40" height="40" viewBox="0 0 40 40" fill="none" xmlns="http://www.w3.org/2000/svg">
<path fill-rule="evenodd" clip-rule="evenodd" d="M1.66666 4.73009C1.66666 3.91764 1.9894 3.13847 2.56389 2.56398C3.13837 1.9895 3.91754 1.66675 4.72999 1.66675H35.2667C35.6693 1.66609 36.0681 1.74486 36.4402 1.89853C36.8124 2.0522 37.1505 2.27777 37.4354 2.56231C37.7203 2.84686 37.9462 3.18479 38.1003 3.55677C38.2543 3.92875 38.3335 4.32746 38.3333 4.73009V35.2668C38.3338 35.6695 38.2548 36.0683 38.1009 36.4405C37.9471 36.8126 37.7214 37.1508 37.4367 37.4356C37.152 37.7204 36.814 37.9463 36.4419 38.1004C36.0698 38.2545 35.671 38.3336 35.2683 38.3334H4.72999C4.32757 38.3334 3.92909 38.2541 3.55732 38.1001C3.18555 37.946 2.84778 37.7202 2.5633 37.4356C2.27882 37.151 2.05321 36.8131 1.89936 36.4412C1.74551 36.0694 1.66644 35.6708 1.66666 35.2684V4.73009ZM16.18 15.6468H21.145V18.1401C21.8617 16.7068 23.695 15.4168 26.45 15.4168C31.7317 15.4168 32.9833 18.2718 32.9833 23.5101V33.2134H27.6383V24.7034C27.6383 21.7201 26.9217 20.0368 25.1017 20.0368C22.5767 20.0368 21.5267 21.8518 21.5267 24.7034V33.2134H16.18V15.6468ZM7.01332 32.9851H12.36V15.4168H7.01332V32.9834V32.9851ZM13.125 9.68675C13.1351 10.1445 13.0536 10.5997 12.8854 11.0256C12.7172 11.4515 12.4656 11.8395 12.1454 12.1668C11.8252 12.4941 11.4428 12.7542 11.0207 12.9318C10.5987 13.1093 10.1454 13.2008 9.68749 13.2008C9.22959 13.2008 8.7763 13.1093 8.35423 12.9318C7.93216 12.7542 7.5498 12.4941 7.2296 12.1668C6.9094 11.8395 6.65781 11.4515 6.48959 11.0256C6.32137 10.5997 6.23991 10.1445 6.24999 9.68675C6.26978 8.78818 6.64063 7.93307 7.28313 7.30456C7.92563 6.67605 8.7887 6.32412 9.68749 6.32412C10.5863 6.32412 11.4493 6.67605 12.0918 7.30456C12.7343 7.93307 13.1052 8.78818 13.125 9.68675V9.68675Z" fill="#264653"/>
</svg>
