<svg width="44" height="30" viewBox="0 0 44 30" fill="none" xmlns="http://www.w3.org/2000/svg">
<path fill-rule="evenodd" clip-rule="evenodd" d="M2.00004 0C1.55801 0 1.13409 0.175595 0.821529 0.488156C0.508969 0.800716 0.333374 1.22464 0.333374 1.66667C0.333374 2.10869 0.508969 2.53262 0.821529 2.84518C1.13409 3.15774 1.55801 3.33333 2.00004 3.33333H42C42.4421 3.33333 42.866 3.15774 43.1786 2.84518C43.4911 2.53262 43.6667 2.10869 43.6667 1.66667C43.6667 1.22464 43.4911 0.800716 43.1786 0.488156C42.866 0.175595 42.4421 0 42 0H2.00004ZM0.333374 15C0.333374 14.558 0.508969 14.134 0.821529 13.8215C1.13409 13.5089 1.55801 13.3333 2.00004 13.3333H42C42.4421 13.3333 42.866 13.5089 43.1786 13.8215C43.4911 14.134 43.6667 14.558 43.6667 15C43.6667 15.442 43.4911 15.866 43.1786 16.1785C42.866 16.4911 42.4421 16.6667 42 16.6667H2.00004C1.55801 16.6667 1.13409 16.4911 0.821529 16.1785C0.508969 15.866 0.333374 15.442 0.333374 15ZM0.333374 28.3333C0.333374 27.8913 0.508969 27.4674 0.821529 27.1548C1.13409 26.8423 1.55801 26.6667 2.00004 26.6667H42C42.4421 26.6667 42.866 26.8423 43.1786 27.1548C43.4911 27.4674 43.6667 27.8913 43.6667 28.3333C43.6667 28.7754 43.4911 29.1993 43.1786 29.5118C42.866 29.8244 42.4421 30 42 30H2.00004C1.55801 30 1.13409 29.8244 0.821529 29.5118C0.508969 29.1993 0.333374 28.7754 0.333374 28.3333Z" fill="#264653"/>
</svg>
